<?xml version="1.0" encoding="UTF-8"?>
<!DOCTYPE svg PUBLIC "-//W3C//DTD SVG 1.1//EN" "http://www.w3.org/Graphics/SVG/1.1/DTD/svg11.dtd">
<!-- Creator: CorelDRAW -->
<svg xmlns="http://www.w3.org/2000/svg" xml:space="preserve" width="0.89935in" height="1.01441in" version="1.1" style="shape-rendering:geometricPrecision; text-rendering:geometricPrecision; image-rendering:optimizeQuality; fill-rule:evenodd; clip-rule:evenodd"
viewBox="0 0 813.95 918.07"
 xmlns:xlink="http://www.w3.org/1999/xlink"
 xmlns:xodm="http://www.corel.com/coreldraw/odm/2003">
 <defs>
  <style type="text/css">
   <![CDATA[
    .str0 {stroke:#ED282E;stroke-width:7.13;stroke-miterlimit:22.9256}
    .str1 {stroke:white;stroke-width:2.72;stroke-miterlimit:22.9256}
    .fil1 {fill:white}
    .fil0 {fill:#ED282E}
   ]]>
  </style>
 </defs>
 <g id="图层_x0020_1">
  <metadata id="CorelCorpID_0Corel-Layer"/>
  <g id="_294261216">
   <path class="fil0 str0" d="M14.83 628.61c2.47,-12.49 3,-31.9 3,-44.76 0,-12.44 7.49,-22.28 7.49,-37.18 0,-5.38 1.5,0.43 1.5,-8.26 0,-1.43 1.5,-5.54 1.5,-11.02 0,-5.29 1.5,-7.72 1.5,-15.15 0,-4.47 1.38,-20.77 -1.5,-23.41 -1.8,-1.66 -7.25,-15.15 -10.49,-19.28 -4.63,-5.91 -3,-3.34 -3,-12.39 0,-4.14 -0.18,-36.49 0,-37.18 1.85,-7.21 1.5,-4.72 1.5,-12.4 0,-1.45 3,-6.64 3,-13.77 0,-1.85 3,-12.44 3,-15.15 0,-14.79 0.92,-20.49 4.5,-34.43 0.03,-0.12 1.07,-12.1 1.5,-13.77 1.97,-7.66 1.5,-5.54 1.5,-13.78 0,-5.09 2.99,-6.39 2.99,-16.53 0,-2.47 -0.16,-20.04 0,-20.66 1.61,-6.26 1.5,-4.56 1.5,-11.02 0,-5.07 3,1.84 3,-9.64 0,-11.33 2.87,-55.89 5.99,-64.73 2.33,-6.59 2.58,-17.8 4.49,-22.03 1.74,-3.86 3,-8.17 3,-12.4 0,-7.09 4.5,-13.3 4.5,-20.66 2.75,0 7.72,-13 10.49,-16.53 3.66,-4.66 3.05,-11.06 8.99,-16.53 0.28,-0.25 3.77,-6.92 4.49,-8.26 3.24,0 6.6,-9.34 8.99,-12.39l3 -2.75c2.85,-6.34 -3.8,0.37 3,-4.13 6.68,-4.43 5.19,-6.15 7.49,-8.26 0.17,-0.15 7.44,-5.45 7.49,-5.51 1.37,-1.54 6.44,-7.7 7.49,-9.64 3.37,0 9.97,-14.46 19.48,-16.53 0.05,-0.01 8.39,-3.85 8.99,-4.13 0,-2.75 1.04,-0.63 3,-1.38l5.99 -2.75c3.32,-0.72 14.38,-4.4 19.48,-5.51 0.06,-0.01 16.3,-2.73 16.48,-2.75l16.48 -2.75c13.23,-3.23 36.75,-1.62 41.95,-2.75 14.44,-3.13 -1.71,-2.75 11.98,-2.75 8.09,0 11.06,-2.75 22.48,-2.75 18.56,0 -1.31,-2.75 14.98,-2.75 6.85,0 0.39,-1.38 8.99,-1.38 15.9,0 20.94,-2.76 37.46,-2.76 8.62,0 138.23,-1.09 143.83,0 0.84,0.17 29.44,11.96 31.46,12.4 12.76,2.77 -1.81,-2.07 13.49,2.75 0.05,0.02 12.47,2.37 13.48,2.75 0.09,0.04 18.38,11.57 19.48,12.4 5.61,4.23 5.52,5.53 13.49,11.02l11.98 8.26c4.82,4.43 3.87,5.25 10.49,9.64 8.16,5.41 -0.18,1.22 7.49,8.27 1.69,1.55 21.83,29.34 22.47,30.3l4.49 5.51c10.52,15.65 -7.89,-7.76 7.49,8.26 3.46,3.6 3.5,5.26 8.99,12.4 36.9,47.92 46.37,217.14 52.44,264.42 1.91,14.92 -1.5,25.23 -1.5,39.94 0,20.14 -5.93,52.42 5.99,68.86 5.45,8.63 13.48,28.16 19.48,35.81 11.24,14.33 18.41,31.87 28.47,46.82 4.11,6.11 7.73,24.38 13.48,34.43 10.92,19.08 6.04,33.4 11.99,42.69 4.93,7.7 13.5,49.29 17.98,59.22 1.16,2.57 3.62,22.62 4.49,27.54 2.93,16.6 4.5,21.4 4.5,38.56 0,7.35 0,14.69 0,22.04 -4.17,0 0.94,1.85 -3,6.88 -2.66,3.4 -0.78,8.51 -5.99,15.15 -2.16,2.74 -3,0.36 -3,6.88 -2.95,1.36 -8.99,7.58 -8.99,11.02 -5.14,3.15 -7.33,5.74 -11.24,11.02 -3.86,5.22 -10.4,12.99 -15.73,16.52 -5.35,3.55 -1.31,6.83 -10.49,9.64 -6.47,1.98 -12.48,8.26 -16.48,8.26 -5.72,0 -5.61,3.34 -11.99,5.51l-5.99 1.38c-4.82,1.84 -9.19,5.8 -16.48,6.88l-11.99 2.75c-0.16,0.05 -39.47,4.13 -41.95,4.13 -6.02,0 -64.49,0.31 -65.92,0 -7.82,-1.7 -7.18,-5.51 -23.97,-5.51 -13.02,0 -8.12,-3.66 -19.48,-4.13 -16.65,-0.69 -23.2,-2.75 -40.45,-2.75 -17.95,0 -35.68,-2.75 -53.94,-2.75 -17.14,0 -145.5,0.61 -148.32,0 -19.21,-4.17 -41.64,-11.02 -61.42,-11.02 -18.23,0 -16.48,-5.7 -26.97,-6.88 -12.73,-1.44 -53.07,-20.66 -65.92,-20.66 -0.21,0 -46.76,-16.47 -49.44,-17.9 -11.24,-6 -5.54,-2.03 -13.48,-5.51l-5.99 -4.13c-5.01,-1.54 -7.56,1.31 -16.48,-6.89 -4.53,-4.16 -8.42,-5.71 -11.99,-11.02l-11.99 -15.15c-4.44,-6.6 -6.17,-15.95 -7.49,-23.41 -1.48,-8.4 -5.99,-2.28 -5.99,-15.15 0,-4.56 -3,1.55 -3,-11.02 0,-12.28 0.65,-19.51 -1.5,-31.68 -2.07,-11.7 -4.49,-17.51 -4.49,-30.3 0,-2.38 -0.06,-38.42 0,-38.56 1.55,-3.45 1.5,-0.15 1.5,-6.89 0,-11.31 3,1.6 3,-9.64l1.5 -4.82z"/>
   <path class="fil1 str1" d="M189.97 415.81c9.39,1.23 24.98,12.94 34.25,17.83 4.04,2.13 9.52,2.45 9.26,7.91 -0.29,5.97 -0.95,-2 -4.44,10.32 -8,-0.38 -9.21,-1.04 -13.9,-4.94l-21.58 -24.33c-1.41,-2.2 -2.41,-4.27 -3.6,-6.78zm-19.48 -116.69c0.11,-2.37 1.46,-6.95 2.78,-7.99 6.81,-5.34 21.38,3.21 24.74,4.3 7.6,2.48 16.43,4.47 22.43,9.75l24.12 30.82c6.66,17.86 3.25,25.24 2.59,39.1 -0.29,6.07 0.91,25.1 -3.41,30.77 -5.37,7.05 -7.87,0.44 -18.42,-3.38 -9.61,-3.48 -18.9,-3.19 -32.19,-8.4 -7.04,-2.76 -7.2,-3.47 -16.42,-3.91 -2.4,-3.98 -4.48,-4.6 -6.65,-9.03 -7.19,-14.66 1.26,-44.04 2,-59.61 0.14,-2.94 -0.91,-2.93 -2.38,-5.37 3.36,-1.18 2.99,2.22 1.83,-6.58 -0.56,-4.29 -1.21,-6.48 -1.02,-10.48zm-97.63 -154.72c-0.2,4.16 3.19,11.37 5.26,14.8 21.84,1.03 28.97,0.1 50.27,1.1 13.56,0.64 20.26,2.32 35.22,1.33 5.27,-0.35 3.78,0.51 10.72,0.84 -0.51,10.76 5.89,21.65 2.46,31.7 -0.37,1.09 -0.46,1.62 -0.52,1.87 0.33,1.02 0.4,2.06 -0.01,3.07l0.27 0.3c-0.38,5.42 -1.58,8.76 -2.03,15.54 0.3,1.03 0.27,2.18 0.21,3.34l-0.7 1.73 0.22 0.33c-1.02,3.6 -1.4,4.74 -2.41,6.29l-0.12 0.98c-0.04,0.91 -0.11,1.61 -0.19,2.16 0.97,0.19 0.09,-0.07 0.85,2.32 -0.66,0.43 -1.15,0.73 -1.53,0.94 -0.2,1.25 -1.07,2.29 -1.5,3.47 -0.88,2.43 -0.28,1.97 -0.7,3.34 -0.52,1.69 -0.86,3.37 -1.7,4.94 0.53,1.11 1.34,0.68 -0.55,4.12l-7.81 13.62c-0.17,0.22 -0.41,0.52 -0.57,0.75 -0.22,0.32 -0.83,1.28 -1.04,1.62l-8.74 16.63c-2.88,3.43 -1.65,0.76 -4.76,4.44 -13.23,15.66 -8.82,18.58 -15,35.98 -4.53,12.72 -2.12,13.67 -3.51,23.73 -0.14,1.03 -0.27,1.77 -0.39,2.33l0.56 4.47 0.76 -0.21c-1.92,14.63 0.04,7.2 0.45,18.44l2.59 0.78c-0.86,7.08 -2.32,10.69 -0.82,17.71 0.89,4.16 4.47,6.4 7.41,15.87 0.83,2.69 2.33,4.71 4.12,7.57 3.21,5.13 0.23,7.66 4.31,12.34l4.72 4.66c2.86,2.97 0.26,3.35 2.7,6.24l7.53 4.65c3.52,1.81 7.64,7.06 15.82,11.8 6.52,3.79 2.22,1.93 5.43,6.37 1.3,1.8 -0.72,0.17 2.81,2.46l11.46 4.84c0.16,0.1 0.41,0.42 0.56,0.55l2 1.9c3.29,2.5 7.55,6.28 11.22,7.45 -3.66,7.01 3.93,1.33 -7.43,18.08 -1.74,2.57 -2.4,2.51 -4.41,4.81 -1.86,2.13 -2.12,2.7 -4.27,4.97 -6.23,6.59 -10.59,15.12 -17.19,21.15 -2.69,2.46 -2.21,1.28 -4.79,4.4l-41.16 43.13c-2.58,2.78 -5.47,10.13 -7.22,11.39 -7.02,5.08 -44.11,6.75 -53.81,6.91 -3.17,0.05 -3.26,-1.02 -8.18,-0.6 -11.77,1.01 -22.68,2.63 -34.66,2.06 -14.53,-0.69 -6.34,-2.99 -23.69,0.2 -0.3,11.92 2.2,24.43 10.88,30.43 12.61,8.72 38.07,1.88 53.15,4.28 17.52,2.78 17.83,-0.09 24.75,1.32 5.02,1.02 9.06,2.81 15.92,3.13 24.95,1.18 86.46,6.23 107.7,3.78 5.91,-0.68 7.63,-0.5 14.5,-0.63 3.32,-0.06 8.55,-1.04 12.42,-1.53 16.05,-2.01 19.07,2.91 39.19,-5.24 8,-3.25 17.54,-4.43 26.51,-4 2.45,-4.14 5.16,-8.28 5.93,-14.19 -5.75,-4.26 -17.4,-9.33 -24.45,-10.42 -5.75,-0.89 -12.14,-4.36 -17.17,-5.74 -13.51,-3.7 -30.08,-5.88 -44.12,-4.9 -10.18,0.71 -11.52,0.08 -21.09,-1.1 -8.34,-1.03 -30.68,0.22 -35.4,-1.62 -4.8,-1.87 -3.87,-1.55 -10.49,-1.86 1.84,-3.41 1.26,-1.35 1.62,-6.5 7.79,-3.66 15.5,-8.94 21,-15.58 9.75,-11.78 7.39,-6.31 15.06,-12.44 2.32,-1.85 1.68,-3.09 4.76,-5.81 4.7,-4.14 8.78,-10.33 12.18,-15.61 9.81,-15.21 14.84,-14.87 22.64,-26.2 5.95,-8.65 16.66,-15.66 24.05,-32.94 2.16,-5.06 3.03,-9.72 5.32,-14.86 7.07,-15.86 14.13,-20.8 18.98,-38.52 0.92,-3.34 0.63,-5.12 1.4,-8.12 0.95,-3.66 2.51,-3.11 2.74,-8.04 0.73,-15.45 2.96,-33.12 0.74,-48.41 -0.29,-1.96 -2.33,-6.96 -2.98,-9.86 -2.27,-10.24 -6.32,-16.19 -11.79,-24.45l-2.33 -2.9c-1.79,-2.2 0.2,-0.33 -1.75,-2.17 -0.2,-0.19 -0.52,-0.42 -0.73,-0.6 -0.21,-0.18 -0.58,-0.35 -0.8,-0.53l-8.09 -8.97c-2.12,-2.89 0.07,-0.94 -3.4,-3.19l-12.7 -7.29c-3.92,-2.9 -3.7,-2.91 -6.98,-6.21 -8.9,-8.94 -22.93,-14.08 -33.87,-25.72l-3.25 -3.32c4.59,-7.77 6.31,-19.3 7.89,-28.61 0.89,-5.24 2.25,-10.35 3.08,-14.56 1.01,-5.1 0.13,-13.65 1.39,-17.81 0.87,-2.87 1.17,-1.35 2.85,-5.16 6.89,-15.62 -6.54,-21.51 17.05,-28.21 6.55,-1.86 7.87,-2.94 14.68,-1.14 8.01,2.13 56.39,5.7 67.81,6.18 5.89,0.25 11.71,1.87 15.13,1.56 5.61,-0.52 12.65,-0.09 16.76,-1.01 6.04,-1.36 13.8,-3.66 16.81,-9.14l3.3 -6.04 -3.38 -8.23c-5.11,-7.53 -34.04,-18.12 -42.33,-20.53 -2.54,-0.74 -7.13,-1.61 -9.6,-2.57 -5.37,-2.07 -3.04,-2.07 -9.99,-3.47l-21.03 -3.48c-7.95,-0.36 -16.92,-0.27 -24.12,-1.93 -13.24,-3.04 -62.49,-4.8 -78.15,-5.54 -3.26,-0.16 -2.28,1.05 -6.51,2.5 -14.62,5.03 -30.06,1.74 -44.08,5.41 -6.92,1.81 -8.88,2.44 -16.95,3.46 -9.08,1.15 -9.18,4.41 -13.15,6.53l-5.22 2.21c-3.09,1.07 -4.81,1.51 -7.81,2.54 -5.57,1.91 -1.15,0.14 -5.73,3.14 -4.47,2.93 -6.99,5.55 -7.32,12.45z"/>
   <path class="fil1 str1" d="M587.87 532.3c-5.7,1 -9.78,1.93 -15.76,3.29 -40.79,9.29 -18.5,8.01 -43.61,17.06 -6.5,-4.81 -10.11,-9.13 -18.26,-14.36 -8.22,-5.28 -16.5,-6.26 -24.87,-11.33 0.21,-14.47 6.46,-19.98 8.44,-38.99 1.71,-16.37 3.61,-31.84 6.08,-48.11 4.2,-27.71 7.3,-64.96 6.31,-92.39 -1.7,-46.95 1.54,-75.21 -40.53,-96.74 -21.19,-10.85 -28.16,-1.92 -64.83,11.16 -28.06,10.01 -29.42,-0.21 -53.52,42.58 -25.2,44.76 -24.12,65.53 -28.1,127.53 -0.9,13.99 -2.11,30.62 -1.22,44.6 0.81,12.61 4.73,21.48 -0.67,37.06 -6.16,17.76 -38.4,6.61 -54.29,7.28 -5.54,8.88 -0.78,5.64 -10.71,15.02l11.51 30.77c33.89,3.78 28.74,1.86 56.84,-3.21 21.51,-3.89 39.27,0.36 62.72,-0.76 18.15,-0.87 40.59,6.47 63.04,8.38 18.65,1.59 40.41,-3.58 58.88,-0.39 0.99,16.87 -46.14,59.51 -58.09,75.14 -17.04,22.3 -15.68,29.08 -37.88,55.78 -15.15,18.23 -21.72,36.58 -37.23,56.37 -6.06,7.73 -12.18,25.65 -12.57,36.18l6.58 10.06c40.04,4.94 20.69,4.53 54.87,-53.22 16.47,-27.83 35.76,-49.4 44.38,-62.96l72.03 -87.04c9.71,-11.51 17.12,-19.94 37.02,-16.59 -4.33,28.19 -13.1,45.61 -31.19,68.68 -24.23,30.91 -52.26,79.37 -80.06,111.9 -12.37,14.47 -87.95,118.9 -85.45,140.93 1.1,9.7 28.37,3.45 36.07,5.07l172.07 -262.88c5,-10.18 8.31,-26.4 16.2,-34.84 5.5,12.23 -1.99,17.85 -5.03,31.53 -3.34,15.03 -4.24,20.45 -9.44,34.65 -18.87,51.51 -59.25,136.82 -94.09,168.6 -3.84,3.5 -11.09,31.53 27.72,24.74 21.17,-32.18 4.51,-5.57 24.4,-36.95 5.37,-8.46 14.2,-19.23 21.05,-25.5 20.02,-18.33 22.14,-35.57 34.7,-60 9.27,-18.03 33.39,-91.11 35.16,-109.94 0.83,-8.95 -0.46,-63.78 -4.17,-76.98 -3.66,-13 -12.52,-15.92 -12.05,-30.48 1.74,-53.01 11.76,-102.77 -20.72,-149.68 -11.41,-16.48 -20.4,-44.7 -16.69,-68.97 12.34,-9.83 28.98,-15.07 43.99,-18.21 28.23,-5.9 27.4,-5.27 58.91,-1.82 8.13,-11.56 18.74,-15.82 15.3,-31.67 -9.53,-4.02 -14.62,-4.52 -25.72,-4.1 -12.43,0.47 -17.25,3.03 -25.07,3.56 -24.36,1.65 -52.28,-5.28 -75.32,10.74 -24.67,17.14 -27.56,38.2 -28.6,68.67 -0.29,8.53 0.74,17.47 2.19,23.65 8.29,35.31 9.21,30.78 28.79,61.86 11.1,17.63 15.65,81.92 10.46,105.29zm-227.77 -100.24c18.42,5.11 29.59,0.09 46.12,-0.06 19.03,-0.17 34.04,3.52 52.81,4.79l1.75 -23.42c-39.6,-5.07 -28.83,12.64 -44.67,3.19 6.27,-17.01 6.66,4.25 8.9,-16.21 -11.65,-5.6 -14.57,-2.74 -25.41,-5.39 -15.52,-3.8 -5.95,-9.22 -20.94,-3.57 -20.24,7.64 -18.04,14.36 -18.56,40.67zm1.54 81.06c8.25,6.94 72.93,12.65 88.7,12.23l0.63 -40.4c-5.18,-2.71 -80.54,-16.29 -87.89,-1.24 -3.96,8.1 -3.99,23.93 -1.44,29.42zm18.12 -174.47c16.61,7.36 22.78,6.44 42.1,9.51 21.29,3.38 24.86,9.8 44.44,10.74 5.91,-35.42 -5.07,-52.4 -15.08,-72.13 -11.13,-1.85 -36.39,5.95 -46.87,11.15 -17.64,8.74 -24.02,17.57 -24.59,40.74z"/>
  </g>
 </g>
</svg>
